<?xml version="1.0" standalone="no"?>
<!DOCTYPE svg PUBLIC "-//W3C//DTD SVG 20010904//EN"
 "http://www.w3.org/TR/2001/REC-SVG-20010904/DTD/svg10.dtd">
<svg version="1.0" xmlns="http://www.w3.org/2000/svg"
 width="225.000000pt" height="225.000000pt" viewBox="0 0 225.000000 225.000000"
 preserveAspectRatio="xMidYMid meet">
<metadata>
Created by potrace 1.11, written by Peter Selinger 2001-2013
</metadata>
<g transform="translate(0.000000,225.000000) scale(0.100000,-0.100000)"
fill="#000000" stroke="none">
<path d="M592 2148 c-18 -18 -17 -851 1 -866 8 -7 106 -12 262 -14 270 -3 276
-4 348 -64 36 -30 58 -30 94 0 72 60 78 61 348 64 156 2 254 7 262 14 18 15
19 848 1 866 -16 16 -543 17 -585 1 -15 -6 -38 -20 -50 -31 l-23 -21 -22 21
c-13 11 -36 25 -51 31 -42 16 -569 15 -585 -1z m570 -89 c44 -24 48 -57 48
-414 0 -184 -1 -335 -2 -335 -2 0 -28 10 -58 22 -49 20 -77 23 -267 26 l-213
4 0 354 0 354 236 0 c149 0 243 -4 256 -11z m668 -343 l0 -354 -217 -4 c-198
-4 -223 -6 -266 -26 -27 -12 -51 -22 -53 -22 -3 0 -3 160 -2 356 l3 356 28 24
c28 24 29 24 268 24 l239 0 0 -354z"/>
<path d="M1933 1039 c-17 -5 -147 -81 -289 -169 l-257 -159 -56 28 c-67 34
-509 223 -566 242 -53 18 -237 18 -290 0 -63 -21 -359 -143 -372 -154 -18 -13
-16 -52 3 -68 19 -15 14 -17 254 81 133 54 166 64 232 68 43 3 99 -1 125 -7
80 -20 589 -241 627 -273 28 -23 36 -37 36 -63 0 -40 -20 -55 -73 -55 -39 0
-199 44 -346 95 -57 20 -112 35 -124 33 -29 -4 -45 -33 -31 -55 20 -33 388
-153 489 -160 106 -8 181 56 173 147 -3 25 -8 52 -12 61 -6 13 41 46 236 165
133 82 251 153 262 157 25 10 73 -9 86 -34 18 -34 11 -74 -17 -101 -56 -50
-816 -560 -850 -570 -20 -5 -50 -7 -68 -4 -18 4 -143 52 -276 108 -231 95
-249 101 -330 105 -109 7 -167 -15 -302 -113 -97 -70 -121 -101 -97 -129 22
-27 51 -16 143 51 120 88 156 104 240 104 63 0 84 -7 320 -104 139 -57 269
-107 290 -110 94 -17 116 -5 573 307 235 161 436 303 446 317 39 54 35 148 -9
200 -44 53 -111 76 -170 59z"/>
</g>
</svg>
